<svg width="37" height="37" viewBox="0 0 37 37" fill="none" xmlns="http://www.w3.org/2000/svg">
<path fill-rule="evenodd" clip-rule="evenodd" d="M28.1207 36.0584V34.0077C28.2341 33.8937 28.6029 33.552 29.227 32.9823C29.851 32.4127 30.3332 31.957 30.6736 31.6152C31.014 31.2734 31.4679 30.7892 32.0352 30.1626C32.6025 29.536 32.9997 28.9663 33.2266 28.4537C33.4535 27.941 33.567 27.4568 33.567 27.0011C33.567 25.8618 32.8862 25.2921 31.5246 25.2921C30.6169 25.2921 29.6525 25.6339 28.6313 26.3175L28.4611 24.2668C29.7092 23.6971 30.9573 23.4123 32.2054 23.4123C34.8151 23.4123 36.12 24.6086 36.12 27.0011C36.12 28.5961 34.5315 30.9316 31.3545 34.0077H36.6306V36.0584H28.1207ZM5.65459 14.8677C5.65459 17.602 6.42048 20.023 7.95226 22.1306C9.48404 24.2383 11.6682 25.2921 14.5049 25.2921C17.3415 25.2921 19.5257 24.2383 21.0575 22.1306C22.5893 20.023 23.3551 17.602 23.3551 14.8677C23.3551 12.0195 22.5609 9.54153 20.9724 7.43384C19.3839 5.32617 17.228 4.27234 14.5049 4.27234C11.7817 4.27234 9.62588 5.32617 8.03738 7.43384C6.44887 9.54151 5.65459 12.0195 5.65459 14.8677ZM0.0380859 14.8677C0.0380859 10.5384 1.3713 6.97814 4.03772 4.18688C6.70414 1.39563 10.1932 0 14.5049 0C18.8165 0 22.3056 1.39563 24.972 4.18688C27.6385 6.97814 28.9717 10.5384 28.9717 14.8677C28.9717 18.9691 27.6101 22.4439 24.8869 25.2922C22.1638 28.1404 18.7031 29.5645 14.5049 29.5645C10.3067 29.5645 6.84599 28.1404 4.12283 25.2922C1.39967 22.4439 0.0380859 18.9691 0.0380859 14.8677Z" fill="#0050FF"/>
</svg>
