<?xml version="1.0" encoding="UTF-8" standalone="no"?>
<!-- Created with Inkscape (http://www.inkscape.org/) -->

<svg
   version="1.1"
   id="svg1"
   width="662.77332"
   height="298.90668"
   viewBox="0 0 662.77332 298.90668"
   sodipodi:docname="o2_Business_Logo_Claim_horizontal_RGB_Beyond_Blue.eps"
   xmlns:inkscape="http://www.inkscape.org/namespaces/inkscape"
   xmlns:sodipodi="http://sodipodi.sourceforge.net/DTD/sodipodi-0.dtd"
   xmlns="http://www.w3.org/2000/svg"
   xmlns:svg="http://www.w3.org/2000/svg">
  <defs
     id="defs1" />
  <sodipodi:namedview
     id="namedview1"
     pagecolor="#ffffff"
     bordercolor="#000000"
     borderopacity="0.25"
     inkscape:showpageshadow="2"
     inkscape:pageopacity="0.0"
     inkscape:pagecheckerboard="0"
     inkscape:deskcolor="#d1d1d1">
    <inkscape:page
       x="0"
       y="0"
       inkscape:label="1"
       id="page1"
       width="662.77332"
       height="298.90668"
       margin="0"
       bleed="0" />
  </sodipodi:namedview>
  <g
     id="g1"
     inkscape:groupmode="layer"
     inkscape:label="1">
    <g
       id="group-R5">
      <path
         id="path2"
         d="m 1215.4,1014.1 h -152.95 v 38.57 c 21.42,20.77 99.55,86.04 99.55,128.23 0,21.1 -18.79,30.99 -37.58,30.99 -19.45,0 -37.91,-8.57 -53.07,-18.46 l -3.63,38.24 c 20.77,10.55 44.83,16.48 68.24,16.48 43.84,0 72.19,-22.09 72.19,-67.25 0,-48.79 -49.12,-93.62 -86.7,-130.54 h 93.95 v -36.26 z m -406.412,193.97 c -113.093,0 -163.019,101.89 -163.019,194.61 0,98.83 60.113,194.6 163.019,194.6 101.891,0 162,-95.77 162,-194.6 0,-92.72 -49.922,-194.61 -162,-194.61 z m 0,466.64 c -158.941,0 -264.906,-114.11 -264.906,-272.03 0,-148.76 108.004,-272.05 264.906,-272.05 155.891,0 263.892,123.29 263.892,272.05 0,157.92 -105.966,272.03 -263.892,272.03 z M 1660.9,1217.52 h -102.96 v 148.29 h 106.8 c 26.64,0 46.48,-6.42 59.55,-19.21 13.06,-12.81 19.59,-30.48 19.59,-53.01 0,-50.72 -27.65,-76.07 -82.98,-76.07 z m -102.96,368.8 H 1644 c 53.79,0 80.67,-23.32 80.67,-69.92 0,-23.05 -6.41,-40.85 -19.21,-53.4 -12.81,-12.56 -32.26,-18.82 -58.39,-18.82 h -89.13 z m 202.08,-167.5 c 20.47,8.7 37.26,23.18 50.33,43.41 13.06,20.23 19.58,43.66 19.58,70.31 0,27.66 -6.4,51.47 -19.2,71.45 -12.81,19.98 -31.63,35.35 -56.47,46.1 -24.85,10.76 -54.94,16.13 -90.28,16.13 h -179.79 c -11.27,0 -19.86,-2.95 -25.74,-8.83 -5.89,-5.9 -8.84,-14.48 -8.84,-25.75 v -494.02 h 211.29 c 59.93,0 107.05,13.06 141.37,39.17 34.31,26.13 51.48,64.8 51.48,116.02 0,29.71 -8.44,55.72 -25.35,78 -16.91,22.27 -39.7,38.27 -68.38,48.01 z m 412.55,-122.93 c 0,-27.14 -6.14,-48.39 -18.43,-63.76 -12.3,-15.36 -29.96,-23.05 -53.02,-23.05 -21.51,0 -37.39,6.53 -47.63,19.6 -10.26,13.06 -15.37,30.59 -15.37,52.62 v 228.19 h -78.36 c -16.9,0 -25.36,-8.72 -25.36,-26.12 v -215.13 c 0,-26.63 5,-50.46 14.98,-71.45 9.99,-21.01 24.46,-37.4 43.42,-49.17 18.94,-11.77 40.97,-17.68 66.07,-17.68 25.08,0 48.4,6.04 69.91,18.07 21.51,12.02 39.19,29.3 53.01,51.85 l 3.85,-62.23 h 65.3 c 8.18,0 14.46,2.3 18.83,6.92 4.35,4.6 6.53,11 6.53,19.21 v 345.73 h -103.73 z m 431.02,46.87 c -14.86,7.17 -33.03,13.32 -54.54,18.45 l -41.5,10.75 c -19.47,5.12 -34.18,10.38 -44.17,15.75 -9.99,5.38 -14.98,12.93 -14.98,22.67 0,20.99 21.76,31.5 65.3,31.5 18.44,0 38.15,-1.29 59.16,-3.84 21,-2.57 40.72,-6.15 59.16,-10.77 v 48.41 c 0,8.71 -1.41,15.1 -4.22,19.21 -2.82,4.1 -9.1,7.41 -18.83,9.99 -11.27,3.58 -25.62,6.53 -43.03,8.83 -17.41,2.31 -35.08,3.47 -53.01,3.47 -52.76,0 -93.09,-9.11 -121,-27.29 -27.93,-18.18 -41.88,-45.71 -41.88,-82.59 0,-30.22 9.72,-54.3 29.2,-72.21 19.46,-17.94 47.12,-31.25 82.98,-39.95 l 36.88,-10 c 13.82,-3.59 24.58,-6.79 32.26,-9.6 7.69,-2.82 13.7,-6.53 18.06,-11.13 4.34,-4.62 6.53,-10.77 6.53,-18.45 0,-11.79 -5.9,-21.39 -17.68,-28.81 -11.78,-7.43 -29.95,-11.14 -54.54,-11.14 -19.47,0 -40.21,1.66 -62.23,5 -22.03,3.32 -43.3,7.8 -63.77,13.44 v -52.25 c 0,-7.68 1.65,-13.71 4.99,-18.05 3.32,-4.36 10.11,-8.07 20.36,-11.14 11.78,-4.1 27.27,-7.3 46.48,-9.61 19.21,-2.3 38.29,-3.46 57.24,-3.46 54.28,0 95.91,10.25 124.85,30.74 28.94,20.48 43.41,50.7 43.41,90.66 0,24.59 -4.87,44.18 -14.59,58.78 -9.74,14.59 -22.03,25.47 -36.89,32.64 z m 208.59,346.9 c -9.49,5.38 -19.58,8.06 -30.35,8.06 -11.26,0 -21.51,-2.68 -30.73,-8.06 -9.21,-5.39 -16.65,-12.68 -22.28,-21.9 -5.64,-9.21 -8.45,-19.47 -8.45,-30.74 0,-11.79 2.81,-22.27 8.45,-31.49 5.63,-9.23 13.07,-16.52 22.28,-21.89 9.22,-5.39 19.47,-8.08 30.73,-8.08 10.77,0 20.86,2.69 30.35,8.08 9.47,5.37 16.91,12.78 22.28,22.27 5.37,9.47 8.07,19.84 8.07,31.11 0,11.27 -2.7,21.53 -8.07,30.74 -5.37,9.22 -12.81,16.51 -22.28,21.9 z m -82.59,-206.29 v -345.74 h 103.72 v 371.86 h -77.6 c -17.42,0 -26.12,-8.72 -26.12,-26.12 z m 491.33,16.13 c -18.71,11.78 -40.85,17.68 -66.46,17.68 -25.62,0 -49.43,-6.15 -71.45,-18.44 -22.03,-12.29 -39.96,-29.72 -53.78,-52.26 l -3.85,63.01 h -65.3 c -16.91,0 -25.36,-8.72 -25.36,-26.12 v -345.74 h 103.73 v 213.59 c 0,27.14 6.4,48.4 19.21,63.76 12.79,15.37 30.98,23.06 54.54,23.06 21.51,0 37.38,-6.54 47.64,-19.6 10.24,-13.06 15.36,-30.34 15.36,-51.85 v -202.83 c 0,-8.21 2.3,-14.61 6.92,-19.21 4.6,-4.62 11,-6.92 19.21,-6.92 h 77.59 v 242.02 c 0,26.62 -4.99,50.33 -14.98,71.06 -9.99,20.74 -24.33,37 -43.02,48.79 z m 232.4,-135.21 c 3.08,26.62 12.16,46.73 27.28,60.3 15.1,13.57 33.67,20.36 55.69,20.36 22.02,0 40.85,-6.91 56.48,-20.75 15.61,-13.82 24.7,-33.8 27.27,-59.91 z m 176.71,128.67 c -27.66,16.14 -58.91,24.22 -93.74,24.22 -35.34,0 -66.96,-8.08 -94.88,-24.22 -27.93,-16.12 -49.82,-38.92 -65.69,-68.37 -15.89,-29.45 -23.82,-63.38 -23.82,-101.8 0,-39.45 8.84,-73.76 26.52,-102.95 17.66,-29.2 41.86,-51.36 72.59,-66.46 30.74,-15.11 65.3,-22.67 103.72,-22.67 19.46,0 39.06,1.68 58.78,5 19.71,3.33 36.23,7.3 49.56,11.91 10.23,4.1 16.9,8.45 19.97,13.06 3.07,4.61 4.61,10.24 4.61,16.9 v 50.71 c -45.08,-15.37 -84.77,-23.05 -119.08,-23.05 -33.31,0 -60.2,7.55 -80.67,22.66 -20.5,15.1 -32.27,38.04 -35.35,68.77 h 262.76 c 2.04,10.24 3.07,20.75 3.07,31.5 0,36.87 -7.82,69.53 -23.43,97.96 -15.63,28.43 -37.27,50.71 -64.92,66.83 z m 393.36,-150.2 c -14.86,7.17 -33.03,13.32 -54.54,18.45 l -41.49,10.75 c -19.47,5.12 -34.19,10.38 -44.18,15.75 -9.99,5.38 -14.98,12.93 -14.98,22.67 0,20.99 21.77,31.5 65.31,31.5 18.43,0 38.15,-1.29 59.15,-3.84 21,-2.57 40.72,-6.15 59.16,-10.77 v 48.41 c 0,8.71 -1.41,15.1 -4.22,19.21 -2.83,4.1 -9.11,7.41 -18.82,9.99 -11.28,3.58 -25.62,6.53 -43.03,8.83 -17.42,2.31 -35.08,3.47 -53.02,3.47 -52.75,0 -93.09,-9.11 -121,-27.29 -27.92,-18.18 -41.88,-45.71 -41.88,-82.59 0,-30.22 9.73,-54.3 29.2,-72.21 19.47,-17.94 47.12,-31.25 82.97,-39.95 l 36.89,-10 c 13.82,-3.59 24.59,-6.79 32.26,-9.6 7.69,-2.82 13.7,-6.53 18.07,-11.13 4.33,-4.62 6.52,-10.77 6.52,-18.45 0,-11.79 -5.9,-21.39 -17.67,-28.81 -11.79,-7.43 -29.96,-11.14 -54.54,-11.14 -19.48,0 -40.23,1.66 -62.25,5 -22.02,3.32 -43.28,7.8 -63.76,13.44 v -52.25 c 0,-7.68 1.65,-13.71 4.99,-18.05 3.33,-4.36 10.11,-8.07 20.37,-11.14 11.77,-4.1 27.27,-7.3 46.48,-9.61 19.21,-2.3 38.28,-3.46 57.24,-3.46 54.28,0 95.9,10.25 124.85,30.74 28.92,20.48 43.41,50.7 43.41,90.66 0,24.59 -4.89,44.18 -14.61,58.78 -9.73,14.59 -22.02,25.47 -36.88,32.64 z m 388.77,-32.64 c -9.74,14.59 -22.03,25.47 -36.89,32.64 -14.86,7.17 -33.03,13.32 -54.54,18.45 l -41.49,10.75 c -19.48,5.12 -34.19,10.38 -44.18,15.75 -9.99,5.38 -14.98,12.93 -14.98,22.67 0,20.99 21.76,31.5 65.3,31.5 18.44,0 38.15,-1.29 59.16,-3.84 20.99,-2.57 40.72,-6.15 59.16,-10.77 v 48.41 c 0,8.71 -1.41,15.1 -4.22,19.21 -2.82,4.1 -9.1,7.41 -18.82,9.99 -11.28,3.58 -25.63,6.53 -43.04,8.83 -17.41,2.31 -35.08,3.47 -53.01,3.47 -52.76,0 -93.09,-9.11 -121,-27.29 -27.93,-18.18 -41.88,-45.71 -41.88,-82.59 0,-30.22 9.72,-54.3 29.2,-72.21 19.46,-17.94 47.12,-31.25 82.98,-39.95 l 36.88,-10 c 13.82,-3.59 24.58,-6.79 32.26,-9.6 7.69,-2.82 13.7,-6.53 18.06,-11.13 4.34,-4.62 6.53,-10.77 6.53,-18.45 0,-11.79 -5.9,-21.39 -17.68,-28.81 -11.78,-7.43 -29.95,-11.14 -54.54,-11.14 -19.47,0 -40.21,1.66 -62.23,5 -22.03,3.32 -43.3,7.8 -63.77,13.44 v -52.25 c 0,-7.68 1.65,-13.71 4.99,-18.05 3.32,-4.36 10.11,-8.07 20.36,-11.14 11.78,-4.1 27.27,-7.3 46.48,-9.61 19.21,-2.3 38.29,-3.46 57.25,-3.46 54.27,0 95.9,10.25 124.84,30.74 28.94,20.48 43.41,50.7 43.41,90.66 0,24.59 -4.87,44.18 -14.59,58.78 z M 3072.35,544.082 c 10.52,0 21.05,0.77 31.6,2.297 10.53,1.531 19.2,3.48 25.99,5.859 4.75,1.692 8.32,3.563 10.7,5.602 2.37,2.039 3.82,3.992 4.33,5.859 0.51,1.871 0.76,4.332 0.76,7.391 v 36.191 c -7.47,-2.722 -16.81,-5.09 -28.02,-7.133 -11.21,-2.039 -22.1,-3.058 -32.63,-3.058 -24.79,0 -43.92,6.449 -57.34,19.359 -13.41,12.91 -20.12,31.781 -20.12,56.571 0,24.82 6.62,43.5 19.87,56.07 13.25,12.57 32.46,18.871 57.59,18.871 10.19,0 20.72,-0.949 31.61,-2.801 10.87,-1.871 20.38,-4.332 28.53,-7.39 v 36.679 c 0,3.403 -0.25,6.031 -0.76,7.903 -0.51,1.867 -2.04,3.82 -4.59,5.859 -2.54,2.039 -6.54,3.91 -11.97,5.629 -6.79,2.351 -15.22,4.14 -25.22,5.351 -10.04,1.18 -20.14,1.778 -30.33,1.778 -27.52,0 -51.48,-5.199 -71.86,-15.559 -20.4,-10.359 -36.03,-25.219 -46.9,-44.582 -10.89,-19.379 -16.3,-41.969 -16.3,-67.808 0,-26.489 5.61,-49.438 16.81,-68.801 11.21,-19.36 27.01,-34.239 47.41,-44.598 20.38,-10.359 43.98,-15.539 70.84,-15.539 m 352.49,51.988 c -7.83,0 -13.1,1.961 -15.81,5.86 -2.72,3.91 -4.08,10.449 -4.08,19.621 v 87.16 c 0,28.551 -9,51.051 -27,67.527 -18.02,16.473 -48.25,24.731 -90.73,24.731 -13.93,0 -27.77,-0.957 -41.54,-2.797 -13.76,-1.891 -25.05,-4.192 -33.89,-6.883 -5.79,-1.719 -9.68,-4.008 -11.71,-6.898 -2.04,-2.891 -3.08,-7.219 -3.08,-12.993 V 737.77 c 11.91,3.058 25.24,5.519 40.01,7.39 14.78,1.852 28.3,2.801 40.53,2.801 14.6,0 26.15,-1.609 34.66,-4.84 8.5,-3.25 14.53,-8.172 18.09,-14.801 3.57,-6.621 5.52,-15.531 5.86,-26.738 l -25.98,0.508 c -44.18,0 -77.57,-6.629 -100.16,-19.871 -22.61,-13.27 -33.9,-32.797 -33.9,-58.637 0,-14.602 3.48,-27.934 10.44,-39.992 6.97,-12.078 16.9,-21.59 29.83,-28.551 12.91,-6.969 27.51,-10.449 43.84,-10.449 16.98,0 32.6,3.57 46.89,10.699 14.27,7.141 25.81,17.152 34.64,30.082 8.84,-26.851 28.73,-40.269 59.64,-40.269 9.84,0 18.68,1.187 26.51,3.57 5.43,1.699 8.83,3.988 10.19,6.879 1.36,2.879 2.04,6.371 2.04,10.437 v 32.121 c -2.04,-0.679 -4.42,-1.187 -7.14,-1.527 -2.71,-0.344 -5.43,-0.512 -8.15,-0.512 m -143.23,-4.582 c -12.22,0 -21.73,3.223 -28.53,9.684 -6.81,6.449 -10.21,14.598 -10.21,24.449 0,13.27 6.54,22.609 19.64,28.039 13.08,5.442 33.37,8.16 60.9,8.16 h 12.74 v -17.84 c 0,-10.179 -2.38,-19.289 -7.13,-27.269 -4.76,-7.992 -11.3,-14.18 -19.62,-18.602 -8.34,-4.418 -17.6,-6.621 -27.79,-6.621 m 340.32,209.481 c -17.01,0 -32.8,-4.078 -47.41,-12.25 -14.6,-8.149 -26.51,-19.699 -35.68,-34.649 l -2.55,41.801 h -43.33 c -11.2,0 -16.81,-5.789 -16.81,-17.34 V 549.18 h 68.8 v 141.699 c 0,18 4.25,32.101 12.76,42.281 8.49,10.219 20.55,15.309 36.17,15.309 14.29,0 24.82,-4.328 31.61,-13.008 6.8,-8.66 10.19,-20.129 10.19,-34.391 V 566.5 c 0,-5.43 1.53,-9.68 4.59,-12.738 3.05,-3.051 7.3,-4.582 12.73,-4.582 h 51.48 v 160.55 c 0,17.661 -3.31,33.391 -9.93,47.149 -6.62,13.75 -16.13,24.543 -28.53,32.351 -12.42,7.809 -27.11,11.739 -44.09,11.739 M 4053.61,911.57 V 760.699 c -8.16,12.571 -18.52,22.422 -31.08,29.551 -12.59,7.148 -26.86,10.719 -42.82,10.719 -20.06,0 -38.66,-5.289 -55.81,-15.821 -17.15,-10.527 -30.76,-25.558 -40.78,-45.089 -10.02,-19.547 -15.03,-42.047 -15.03,-67.539 0,-25.481 5.01,-48 15.03,-67.532 10.02,-19.527 23.63,-34.578 40.78,-45.109 17.15,-10.527 35.75,-15.797 55.81,-15.797 18,0 33.82,4.418 47.4,13.25 13.59,8.828 24.29,20.906 32.1,36.188 l 2.06,-44.34 h 61.67 v 345.55 c 0,5.102 -1.53,9.2 -4.59,12.25 -3.06,3.059 -7.32,4.59 -12.76,4.59 z m -57.09,-313.968 c -18.68,0 -33.05,6.617 -43.05,19.867 -10.04,13.269 -15.05,31.613 -15.05,55.051 0,23.449 5.01,41.789 15.05,55.039 10,13.269 24.37,19.89 43.05,19.89 18.36,0 32.46,-6.621 42.31,-19.89 9.85,-13.25 14.78,-31.59 14.78,-55.039 0,-23.438 -4.93,-41.782 -14.78,-55.051 -9.85,-13.25 -23.95,-19.867 -42.31,-19.867 m 302.29,-53.52 c 25.16,0 47.41,5.438 66.77,16.309 19.38,10.871 34.41,26 45.11,45.359 10.7,19.359 16.07,41.629 16.07,66.77 0,25.152 -5.37,47.402 -16.07,66.781 -10.7,19.359 -25.65,34.469 -44.86,45.34 -19.19,10.871 -41.52,16.328 -67.02,16.328 -25.47,0 -47.82,-5.457 -67.01,-16.328 -19.19,-10.871 -34.16,-25.981 -44.86,-45.34 -10.7,-19.379 -16.05,-41.629 -16.05,-66.781 0,-25.141 5.35,-47.411 16.05,-66.77 10.7,-19.359 25.67,-34.488 44.86,-45.359 19.19,-10.871 41.54,-16.309 67.01,-16.309 m 0,53.52 c -18,0 -32.09,6.707 -42.3,20.128 -10.19,13.411 -15.29,31.692 -15.29,54.79 0,23.449 5.01,41.789 15.03,55.039 10.02,13.269 24.22,19.89 42.56,19.89 18.37,0 32.55,-6.621 42.57,-19.89 10.02,-13.25 15.03,-31.59 15.03,-55.039 0,-23.098 -5.1,-41.379 -15.29,-54.79 -10.19,-13.421 -24.3,-20.128 -42.31,-20.128"
         style="fill:#0050ff;fill-opacity:1;fill-rule:nonzero;stroke:none"
         transform="matrix(0.13333333,0,0,-0.13333333,0,298.90667)" />
    </g>
  </g>
</svg>
